<?xml version="1.0" encoding="UTF-8" standalone="no"?>
<!DOCTYPE svg PUBLIC "-//W3C//DTD SVG 1.1//EN" "http://www.w3.org/Graphics/SVG/1.1/DTD/svg11.dtd">
<svg width="100%" height="100%" viewBox="0 0 274 96" version="1.1" xmlns="http://www.w3.org/2000/svg" xmlns:xlink="http://www.w3.org/1999/xlink" xml:space="preserve" xmlns:serif="http://www.serif.com/" style="fill-rule:evenodd;clip-rule:evenodd;stroke-linejoin:round;stroke-miterlimit:2;">
    <g>
        <g transform="matrix(0.978544,0,0,1,-4.70697,96.2016)">
            <path d="M17.751,-47.456L22.587,-63.08L22.691,-63.08L27.371,-47.456L17.751,-47.456ZM17.509,-70.202L5.513,-33.202L12.707,-33.202L15.619,-41.372L29.503,-41.372L32.311,-33.202L39.765,-33.202L27.915,-70.202L17.509,-70.202Z" style="fill:rgb(54,130,249);fill-rule:nonzero;"/>
        </g>
        <g transform="matrix(1,0,0,1,-4.80333,96.2016)">
            <path d="M47.803,-63.202L47.803,-33.202L54.803,-33.202L54.803,-63.202L66.803,-63.202L66.803,-70.232L35.803,-70.232L35.803,-63.202L47.803,-63.202Z" style="fill:rgb(53,130,249);fill-rule:nonzero;"/>
        </g>
        <g transform="matrix(0.928695,0,0,1.0269,0.259246,98.1216)">
            <path d="M77.787,-52.76L77.787,-63.888L85.507,-63.888C86.443,-63.888 87.345,-63.819 88.211,-63.68C89.078,-63.542 89.841,-63.273 90.499,-62.874C91.158,-62.476 91.687,-61.912 92.085,-61.184C92.484,-60.456 92.683,-59.503 92.683,-58.324C92.683,-57.146 92.484,-56.192 92.085,-55.464C91.687,-54.736 91.158,-54.173 90.499,-53.774C89.841,-53.376 89.078,-53.107 88.211,-52.968C87.345,-52.83 86.443,-52.76 85.507,-52.76L77.787,-52.76ZM70.25,-70.232L70.25,-34.202L77.787,-34.202L77.787,-46.416L87.743,-46.416C90.066,-46.416 92.042,-46.754 93.671,-47.43C95.301,-48.106 96.627,-48.999 97.649,-50.108C98.672,-51.218 99.417,-52.492 99.885,-53.93C100.353,-55.369 100.587,-56.834 100.587,-58.324C100.587,-59.85 100.353,-61.323 99.885,-62.744C99.417,-64.166 98.672,-65.431 97.649,-66.54C96.627,-67.65 95.301,-68.542 93.671,-69.218C92.042,-69.894 90.066,-70.232 87.743,-70.232L70.25,-70.232Z" style="fill:rgb(69,97,137);fill-rule:nonzero;"/>
        </g>
        <g transform="matrix(0.917708,0,0,0.821747,3.82932,85.3787)">
            <path d="M104.25,-60.698L104.25,-27.233L111.198,-27.233L111.198,-45.22C111.198,-46.434 111.541,-47.885 112.317,-49.243C112.834,-50.149 113.143,-50.739 113.79,-51.442C114.462,-52.172 115.199,-52.726 116.135,-53.176C117.071,-53.627 118.215,-53.852 119.567,-53.852C120.018,-53.852 120.486,-53.826 120.971,-53.774C121.457,-53.722 121.873,-53.662 122.219,-53.592L122.219,-60.456C121.63,-60.63 121.093,-60.716 120.607,-60.716C119.671,-60.716 118.903,-60.577 117.972,-60.334C117.095,-60.104 116.257,-59.662 115.495,-59.159C114.732,-58.656 113.883,-57.971 113.228,-57.337C112.487,-56.621 111.531,-55.875 110.938,-54.996L110.834,-54.996L110.834,-60.698L104.25,-60.698Z" style="fill:rgb(69,96,137);fill-rule:nonzero;"/>
        </g>
        <g transform="matrix(0.973821,0,0,1,-1.57381,96.2016)">
            <path d="M130.747,-46.52C130.747,-47.595 130.851,-48.652 131.059,-49.692C131.267,-50.732 131.623,-51.651 132.125,-52.448C132.628,-53.246 133.295,-53.896 134.127,-54.398C134.959,-54.901 135.999,-55.152 137.247,-55.152C138.495,-55.152 139.544,-54.901 140.393,-54.398C141.243,-53.896 141.919,-53.246 142.421,-52.448C142.924,-51.651 143.279,-50.732 143.487,-49.692C143.695,-48.652 143.799,-47.595 143.799,-46.52C143.799,-45.446 143.695,-44.397 143.487,-43.374C143.279,-42.352 142.924,-41.433 142.421,-40.618C141.919,-39.804 141.243,-39.154 140.393,-38.668C139.544,-38.183 138.495,-37.94 137.247,-37.94C135.999,-37.94 134.959,-38.183 134.127,-38.668C133.295,-39.154 132.628,-39.804 132.125,-40.618C131.623,-41.433 131.267,-42.352 131.059,-43.374C130.851,-44.397 130.747,-45.446 130.747,-46.52ZM123.363,-46.52C123.363,-44.371 123.693,-42.43 124.351,-40.696C125.01,-38.963 125.946,-37.481 127.159,-36.25C128.373,-35.02 129.829,-34.075 131.527,-33.416C133.226,-32.758 135.133,-32.428 137.247,-32.428C139.362,-32.428 141.277,-32.758 142.993,-33.416C144.709,-34.075 146.174,-35.02 147.387,-36.25C148.601,-37.481 149.537,-38.963 150.195,-40.696C150.854,-42.43 151.183,-44.371 151.183,-46.52C151.183,-48.67 150.854,-50.62 150.195,-52.37C149.537,-54.121 148.601,-55.612 147.387,-56.842C146.174,-58.073 144.709,-59.026 142.993,-59.702C141.277,-60.378 139.362,-60.716 137.247,-60.716C135.133,-60.716 133.226,-60.378 131.527,-59.702C129.829,-59.026 128.373,-58.073 127.159,-56.842C125.946,-55.612 125.01,-54.121 124.351,-52.37C123.693,-50.62 123.363,-48.67 123.363,-46.52Z" style="fill:rgb(69,96,137);fill-rule:nonzero;"/>
        </g>
        <g transform="matrix(1.11233,0,0,1,-22.0422,96.2016)">
            <path d="M163.702,-60.702L163.702,-68.202L157.815,-68.202L157.815,-60.702L153.32,-60.702L153.32,-55.202L157.815,-55.202L157.815,-39.188C157.815,-37.836 158.169,-36.744 158.619,-35.912C159.07,-35.08 159.685,-34.439 160.465,-33.988C161.245,-33.538 162.147,-33.234 163.169,-33.078C164.192,-32.922 165.275,-32.844 166.419,-32.844C167.147,-32.844 167.893,-32.862 168.655,-32.896C169.418,-32.931 170.111,-33 170.735,-33.104L170.735,-38.824C170.389,-38.755 170.025,-38.703 169.643,-38.668C169.262,-38.634 168.863,-38.616 168.447,-38.616C167.199,-38.616 165.698,-38.732 165.22,-39.055C164.737,-39.381 163.729,-39.926 163.702,-41.736L163.702,-55.202L170.851,-55.202L170.851,-60.702L163.702,-60.702Z" style="fill:rgb(69,96,137);fill-rule:nonzero;"/>
        </g>
        <g transform="matrix(0.987238,0,0,1,0.0308757,96.2016)">
            <path d="M180.823,-46.52C180.823,-47.595 180.927,-48.652 181.135,-49.692C181.343,-50.732 181.699,-51.651 182.201,-52.448C182.704,-53.246 183.371,-53.896 184.203,-54.398C185.035,-54.901 186.075,-55.152 187.323,-55.152C188.571,-55.152 189.62,-54.901 190.469,-54.398C191.319,-53.896 191.995,-53.246 192.497,-52.448C193,-51.651 193.355,-50.732 193.563,-49.692C193.771,-48.652 193.875,-47.595 193.875,-46.52C193.875,-45.446 193.771,-44.397 193.563,-43.374C193.355,-42.352 193,-41.433 192.497,-40.618C191.995,-39.804 191.319,-39.154 190.469,-38.668C189.62,-38.183 188.571,-37.94 187.323,-37.94C186.075,-37.94 185.035,-38.183 184.203,-38.668C183.371,-39.154 182.704,-39.804 182.201,-40.618C181.699,-41.433 181.343,-42.352 181.135,-43.374C180.927,-44.397 180.823,-45.446 180.823,-46.52ZM173.439,-46.52C173.439,-44.371 173.769,-42.43 174.427,-40.696C175.086,-38.963 176.022,-37.481 177.235,-36.25C178.449,-35.02 179.905,-34.075 181.603,-33.416C183.302,-32.758 185.209,-32.428 187.323,-32.428C189.438,-32.428 191.353,-32.758 193.069,-33.416C194.785,-34.075 196.25,-35.02 197.463,-36.25C198.677,-37.481 199.613,-38.963 200.271,-40.696C200.93,-42.43 201.259,-44.371 201.259,-46.52C201.259,-48.67 200.93,-50.62 200.271,-52.37C199.613,-54.121 198.677,-55.612 197.463,-56.842C196.25,-58.073 194.785,-59.026 193.069,-59.702C191.353,-60.378 189.438,-60.716 187.323,-60.716C185.209,-60.716 183.302,-60.378 181.603,-59.702C179.905,-59.026 178.449,-58.073 177.235,-56.842C176.022,-55.612 175.086,-54.121 174.427,-52.37C173.769,-50.62 173.439,-48.67 173.439,-46.52Z" style="fill:rgb(69,96,137);fill-rule:nonzero;"/>
        </g>
        <g transform="matrix(0.970799,0,0,1,4.0168,96.2016)">
            <path d="M224.347,-50.524L231.419,-52.267C231.364,-53.125 230.793,-54.018 230.327,-55.022C229.715,-56.344 228.655,-57.345 227.493,-58.194C226.332,-59.044 225.015,-59.676 223.541,-60.092C222.068,-60.508 220.534,-60.716 218.939,-60.716C216.755,-60.716 214.814,-60.352 213.115,-59.624C211.417,-58.896 209.978,-57.882 208.799,-56.582C207.621,-55.282 206.728,-53.74 206.121,-51.954C205.515,-50.169 205.211,-48.236 205.211,-46.156C205.211,-44.146 205.541,-42.3 206.199,-40.618C206.858,-38.937 207.777,-37.49 208.955,-36.276C210.134,-35.063 211.564,-34.118 213.245,-33.442C214.927,-32.766 216.773,-32.428 218.783,-32.428C222.354,-32.428 225.283,-33.364 227.571,-35.236C229.859,-37.108 231.208,-39.595 231.265,-41.464L224.607,-42.94C224.441,-41.718 223.767,-40.41 222.813,-39.422C221.86,-38.434 220.499,-38.049 218.731,-38.049C217.587,-38.049 216.617,-38.2 215.819,-38.72C215.022,-39.24 214.389,-39.908 213.921,-40.722C213.453,-41.537 213.115,-42.447 212.907,-43.452C212.699,-44.458 212.595,-45.446 212.595,-46.416C212.595,-47.422 212.699,-48.436 212.907,-49.458C213.115,-50.481 213.471,-51.417 213.973,-52.266C214.476,-53.116 215.126,-53.809 215.923,-54.346C216.721,-54.884 217.709,-55.152 218.887,-55.152C222.042,-55.152 223.862,-53.61 224.347,-50.524Z" style="fill:rgb(69,96,137);fill-rule:nonzero;"/>
        </g>
        <g transform="matrix(0.986333,0,0,1,0.26708,96.2016)">
            <path d="M242.443,-46.52C242.443,-47.595 242.547,-48.652 242.755,-49.692C242.963,-50.732 243.319,-51.651 243.821,-52.448C244.324,-53.246 244.991,-53.896 245.823,-54.398C246.655,-54.901 247.695,-55.152 248.943,-55.152C250.191,-55.152 251.24,-54.901 252.089,-54.398C252.939,-53.896 253.615,-53.246 254.117,-52.448C254.62,-51.651 254.975,-50.732 255.183,-49.692C255.391,-48.652 255.495,-47.595 255.495,-46.52C255.495,-45.446 255.391,-44.397 255.183,-43.374C254.975,-42.352 254.62,-41.433 254.117,-40.618C253.615,-39.804 252.939,-39.154 252.089,-38.668C251.24,-38.183 250.191,-37.94 248.943,-37.94C247.695,-37.94 246.655,-38.183 245.823,-38.668C244.991,-39.154 244.324,-39.804 243.821,-40.618C243.319,-41.433 242.963,-42.352 242.755,-43.374C242.547,-44.397 242.443,-45.446 242.443,-46.52ZM235.059,-46.52C235.059,-44.371 235.389,-42.43 236.047,-40.696C236.706,-38.963 237.642,-37.481 238.855,-36.25C240.069,-35.02 241.525,-34.075 243.223,-33.416C244.922,-32.758 246.829,-32.428 248.943,-32.428C251.058,-32.428 252.973,-32.758 254.689,-33.416C256.405,-34.075 257.87,-35.02 259.083,-36.25C260.297,-37.481 261.233,-38.963 261.891,-40.696C262.55,-42.43 262.879,-44.371 262.879,-46.52C262.879,-48.67 262.55,-50.62 261.891,-52.37C261.233,-54.121 260.297,-55.612 259.083,-56.842C257.87,-58.073 256.405,-59.026 254.689,-59.702C252.973,-60.378 251.058,-60.716 248.943,-60.716C246.829,-60.716 244.922,-60.378 243.223,-59.702C241.525,-59.026 240.069,-58.073 238.855,-56.842C237.642,-55.612 236.706,-54.121 236.047,-52.37C235.389,-50.62 235.059,-48.67 235.059,-46.52Z" style="fill:rgb(69,96,137);fill-rule:nonzero;"/>
        </g>
        <g transform="matrix(0.937075,0,0,1,15.0881,96.2016)">
            <rect x="267.761" y="-70.232" width="7.494" height="37.031" style="fill:rgb(69,96,137);fill-rule:nonzero;"/>
        </g>
    </g>
</svg>
